<svg width="94" height="20" viewBox="0 0 94 20" fill="none" xmlns="http://www.w3.org/2000/svg">
<path d="M90.0039 5.58621C91.0735 5.58621 91.8808 5.78998 92.4459 6.17728C93.011 6.56478 93.4149 7.17627 93.657 8.01233C93.8991 8.84819 94 9.9897 94 11.4577V13.8431H88.813V14.5769L88.8939 16.5953C88.9543 17.0439 89.0554 17.3701 89.2167 17.5739C89.3784 17.7778 89.6405 17.8797 89.9837 17.8797C90.448 17.8797 90.7709 17.6964 90.9322 17.3295C91.1139 16.9624 91.1946 16.3507 91.2148 15.5149L93.8991 15.678C93.9194 15.8003 93.9194 15.9634 93.9194 16.1672C93.9194 17.4516 93.5762 18.4099 92.8698 19.0418C92.1634 19.6737 91.1946 20 89.9231 20C88.3892 20 87.3196 19.5108 86.714 18.5527C86.1087 17.5943 85.7857 16.0855 85.7857 14.0673V11.6004C85.8542 8.13462 86.4576 5.59632 90.0039 5.58621V5.58621ZM52.6858 5.85122V16.0653C52.6858 16.677 52.7462 17.1255 52.8875 17.3905C53.1741 17.9573 53.9169 17.8125 54.3205 17.5332C54.5535 17.3741 54.7414 17.1563 54.8654 16.9013V5.85103H57.9534V19.7756H55.5314L55.2691 18.0631H55.2086C54.5426 19.3475 53.5535 19.9998 52.2417 19.9998C50.2226 19.9948 49.7285 18.5252 49.6109 17.0328L49.6032 16.9276C49.5887 16.7015 49.5801 16.4751 49.5776 16.2486V5.85122H52.6856H52.6858ZM68.6101 5.85122V16.0653C68.6101 16.677 68.6705 17.1255 68.8118 17.3905C69.0986 17.9573 69.8412 17.8125 70.2448 17.5332C70.4778 17.3741 70.6657 17.1563 70.7897 16.9013V5.85103H73.8777V19.7756H71.4557L71.1934 18.0631H71.1329C70.4669 19.3475 69.4778 19.9998 68.166 19.9998C66.1469 19.9948 65.6528 18.5252 65.5352 17.0328L65.5275 16.9276C65.513 16.7015 65.5044 16.4751 65.5019 16.2486V5.85122H68.6101ZM43.7244 5.58621C44.7336 5.58621 45.5611 5.78998 46.1666 6.21811C46.772 6.64625 47.2363 7.29876 47.5188 8.19568C47.8014 9.09278 47.9427 10.2955 47.9427 11.7839V13.8021C47.9427 15.2905 47.8014 16.473 47.5188 17.3699C47.2363 18.2672 46.7922 18.9195 46.1666 19.3477C45.5411 19.7554 44.6932 19.9796 43.6438 19.9796C42.5538 20 41.7061 19.7758 41.0805 19.3681C40.455 18.94 40.0107 18.2874 39.7486 17.3905C39.486 16.4934 39.365 15.3109 39.365 13.8227V11.8041C39.365 10.3158 39.5062 9.09259 39.809 8.19548C40.1118 7.27815 40.5759 6.62564 41.2218 6.21811C41.8676 5.8102 42.6951 5.58602 43.7244 5.58602V5.58621ZM78.7217 0V7.3394H78.7419C79.0244 6.80938 79.3877 6.38124 79.8923 6.05499C80.3636 5.7349 80.9188 5.56453 81.4866 5.5658C82.2335 5.5658 82.7986 5.76956 83.2224 6.15687C83.6463 6.56478 83.9491 7.19669 84.1306 8.07338C84.3067 8.92266 84.4068 10.0972 84.4129 11.5784L84.4131 11.7229V13.9246C84.4131 15.9836 84.1508 17.5128 83.6663 18.4914C83.162 19.47 82.395 19.9594 81.3454 19.9594C80.7602 19.9594 80.2353 19.8167 79.7511 19.5516C79.3227 19.2995 78.9675 18.9379 78.7213 18.5033L78.6812 18.4302H78.6208L78.2978 19.7554H75.7346V0.00019451H78.7217V0ZM66.3696 0.713564V3.24137H63.3018V19.7756H60.2745V3.24156H57.1865V0.713758H66.3698L66.3696 0.713564ZM33.088 0.713564L33.0899 0.721341C33.1193 0.853749 33.5274 2.68627 33.9763 4.82132L34.0117 4.99047L34.0652 5.24615L34.101 5.41783L34.1189 5.50397L34.1547 5.67662L34.1726 5.76314L34.2082 5.93638L34.2602 6.18973C34.5633 7.66818 34.8526 9.15092 35.0257 10.2141H35.1065C35.2722 9.26038 35.513 8.03994 35.7698 6.79383L35.8372 6.46835C35.871 6.30541 35.9049 6.14248 35.9392 5.97993L35.9919 5.72776C36.3406 4.07642 36.6997 2.42735 37.0692 0.780642L37.075 0.754394L37.0843 0.713564H40.1722L36.5998 13.5781V19.7554H33.5522V13.5983H33.532L30 0.713369H33.088V0.713564ZM43.6638 7.74712C43.24 7.74712 42.9574 7.9715 42.7759 8.44047C42.5942 8.90924 42.5136 9.6228 42.5136 10.622V14.9644C42.5136 15.9838 42.5942 16.738 42.7557 17.1868C42.9172 17.6351 43.22 17.8595 43.6638 17.8595C44.0877 17.8595 44.3904 17.6351 44.5721 17.1868C44.7538 16.738 44.8345 15.9838 44.8345 14.9644V10.6218C44.8345 9.6228 44.7536 8.88882 44.5721 8.44027C44.3904 7.9715 44.0877 7.74712 43.6638 7.74712V7.74712ZM79.2666 8.15504C79.0206 8.38447 78.8456 8.66737 78.7415 9.02104L78.7217 9.09278V17.003C78.9719 17.4312 79.3272 17.7166 79.9528 17.737C80.2757 17.737 80.5379 17.6147 80.74 17.3701C80.9417 17.1255 81.083 16.7176 81.1637 16.1468C81.2412 15.5988 81.2817 14.8441 81.2847 13.8828V11.947C81.2847 10.8462 81.2443 10.0103 81.1839 9.41904C81.103 8.82777 81.0024 8.39963 80.8207 8.15504C80.4694 7.64524 79.7106 7.65146 79.2666 8.15504ZM89.9435 7.68607C89.6003 7.70649 89.358 7.80837 89.2167 7.99191C89.0554 8.19568 88.9543 8.50152 88.8939 8.95007C88.8344 9.38949 88.814 10.9255 88.813 10.9869V11.9879H91.0735V11.1051V11.1221C91.0722 11.4306 91.0658 10.943 91.052 10.3443L91.05 10.2638C91.0373 9.73771 91.0189 9.15111 90.9929 8.95007C90.9322 8.4811 90.8312 8.15485 90.6699 7.9715C90.5084 7.78795 90.2663 7.68607 89.9433 7.68607H89.9435Z" fill="#F2F2F2"/>
<path d="M21.5408 4.49936C21.4156 4.01538 21.1701 3.57402 20.8288 3.21945C20.4875 2.86488 20.0625 2.60954 19.5962 2.47898C17.8799 2 11 2 11 2C11 2 4.12009 2 2.40379 2.47643C1.93733 2.60657 1.51207 2.86177 1.17073 3.21641C0.829388 3.57104 0.58398 4.01263 0.459152 4.49682C-9.36644e-08 6.28025 0 10 0 10C0 10 -9.36644e-08 13.7197 0.459152 15.5006C0.712053 16.4841 1.45848 17.2586 2.40379 17.521C4.12009 18 11 18 11 18C11 18 17.8799 18 19.5962 17.521C20.544 17.2586 21.2879 16.4841 21.5408 15.5006C22 13.7197 22 10 22 10C22 10 22 6.28026 21.5408 4.49936ZM8.81473 13.414V6.58599L14.5112 9.97452L8.81473 13.414Z" fill="#F2F2F2"/>
</svg>
