<svg width="56" height="58" viewBox="0 0 56 58" fill="none" xmlns="http://www.w3.org/2000/svg">
<g clip-path="url(#clip0)">
<path d="M26.411 40.1396C26.3847 40.194 26.3585 40.2375 26.411 40.1396V40.1396ZM48.209 32.2553C46.4485 32.2553 44.7125 32.6721 43.134 33.4787C42.6177 32.4003 42.084 31.4578 41.9965 30.7509C41.8915 29.9262 41.7777 29.4368 41.9002 28.4581C42.0227 27.4793 42.574 26.0928 42.5652 25.9931C42.5565 25.8934 42.4427 25.3949 41.314 25.3859C40.1852 25.3768 39.214 25.6124 39.1002 25.9206C38.9005 26.4835 38.7454 27.0624 38.6365 27.6515C38.4352 28.7118 36.3807 32.4999 35.217 34.4756C34.832 33.7053 34.5082 33.0256 34.4382 32.4818C34.3332 31.6571 34.2195 31.1678 34.342 30.189C34.4645 29.2103 35.0157 27.8237 35.007 27.724C34.9982 27.6243 34.8845 27.1259 33.7575 27.1168C32.6305 27.1078 31.6575 27.3434 31.5437 27.6515C31.43 27.9596 31.3075 28.6846 31.08 29.3824C30.8525 30.0803 28.1137 36.3878 27.398 38.0281C27.0305 38.8618 26.7155 39.5324 26.488 39.9856C26.453 40.0581 26.4267 40.1034 26.4092 40.1396C26.4355 40.0943 26.453 40.049 26.453 40.0671C26.2605 40.4568 26.1467 40.6743 26.1467 40.6743V40.6834C25.998 40.9734 25.8317 41.2362 25.753 41.2362C25.7005 41.2362 25.5867 40.4749 25.7792 39.4328C26.1905 37.2396 27.1617 33.8321 27.153 33.7143C27.1442 33.6509 27.3367 33.0618 26.5142 32.7446C25.718 32.4456 25.4292 32.944 25.3592 32.944C25.2892 32.944 25.2367 33.1253 25.2367 33.1253C25.2367 33.1253 26.1205 29.2828 23.5392 29.2828C21.9292 29.2828 19.6892 31.1134 18.5885 32.7718C17.8972 33.1615 16.401 34.0043 14.826 34.9015L13.0147 35.9346C12.971 35.8893 12.936 35.844 12.8922 35.7987C9.75971 32.3368 3.97771 29.8899 4.22271 25.2409C4.31021 23.5462 4.87896 19.0965 15.3422 13.6953C23.9172 9.27275 30.772 10.4871 31.9532 13.1878C33.6507 17.0393 28.287 24.2078 19.383 25.2409C15.988 25.6306 14.2047 24.2712 13.7585 23.7637C13.2947 23.229 13.2247 23.2018 13.0497 23.3015C12.761 23.4646 12.9447 23.9359 13.0497 24.2168C13.3122 24.9328 14.406 26.2015 16.2697 26.8359C17.906 27.3887 21.8855 27.6968 26.6962 25.7665C32.102 23.6096 36.3107 17.6012 35.0752 12.5715C33.8187 7.46025 25.6357 5.78369 17.899 8.62932C13.2877 10.324 8.30196 12.9884 4.71621 16.4593C0.454958 20.5918 -0.225792 24.1896 0.054208 25.694C1.05171 31.0318 8.15496 34.5118 10.997 37.0856L10.6032 37.3121C9.17696 38.0462 3.76246 40.9824 2.40621 44.0818C0.874958 47.5981 2.65996 50.1174 3.83071 50.4618C7.48821 51.5131 11.2315 49.619 13.244 46.5106C15.2565 43.4021 15.0115 39.3421 14.084 37.4934C14.0752 37.4662 14.0577 37.4481 14.049 37.4209C15.0989 36.7768 16.1578 36.1484 17.2252 35.5359C16.8752 36.5146 16.6215 37.6928 16.4902 39.3965C16.3327 41.3903 17.129 43.9731 18.1615 44.9881C18.6165 45.4321 19.166 45.4412 19.509 45.4412C20.7165 45.4412 21.259 44.4081 21.8627 43.1756C22.6065 41.6712 23.2627 39.9221 23.2627 39.9221C23.2627 39.9221 22.4402 44.6528 24.689 44.6528C25.5115 44.6528 26.334 43.5562 26.7015 42.9943V43.0034C26.7015 43.0034 26.719 42.9671 26.7627 42.8946C26.8502 42.7587 26.894 42.6771 26.894 42.6771V42.6499C27.2265 42.0609 27.9527 40.7106 29.0465 38.4812C30.464 35.5993 31.8185 32.0015 31.8185 32.0015C31.9497 32.7918 32.1317 33.5729 32.361 34.3396C32.606 35.2006 33.1222 36.1431 33.5335 37.0584C33.201 37.5296 32.9997 37.8015 32.9997 37.8015C32.9997 37.8088 33.0032 37.8142 33.0085 37.8196C32.746 38.1821 32.4485 38.5718 32.1422 38.9524C31.024 40.3299 29.6922 41.9068 29.5172 42.3599C29.3072 42.8946 29.3597 43.2934 29.7622 43.6015C30.0597 43.8371 30.5847 43.8734 31.136 43.8281C32.1422 43.7556 32.851 43.5018 33.1922 43.3387C33.8216 43.1051 34.4165 42.7818 34.9597 42.3781C36.0535 41.5443 36.7185 40.3481 36.6572 38.7712C36.6222 37.9012 36.351 37.0312 36.0185 36.2156C36.1147 36.0706 36.2197 35.9165 36.316 35.7624C37.4546 34.0028 38.4806 32.1676 39.3872 30.2688C39.5185 31.059 39.6987 31.8402 39.9297 32.6069C40.1397 33.3409 40.551 34.1475 40.9272 34.9359C39.2997 36.3044 38.2935 37.8903 37.9452 38.9325C37.2977 40.8628 37.8052 41.7328 38.759 41.9322C39.1877 42.0228 39.8002 41.8144 40.2552 41.615C40.9307 41.3812 41.5677 41.0423 42.1435 40.6091C43.2372 39.7753 44.296 38.6063 44.2242 37.0203C44.198 36.3044 44.0055 35.5884 43.7517 34.8997C45.1255 34.3016 46.9105 33.9753 49.1855 34.2472C54.0575 34.8363 55.0112 37.99 54.8275 39.3041C54.6437 40.6181 53.62 41.3522 53.2787 41.5697C52.9375 41.7872 52.8325 41.8688 52.8587 42.0319C52.9025 42.2675 53.06 42.2584 53.3487 42.2041C53.7512 42.1316 55.9037 41.1347 56 38.6969C56.14 35.6156 53.2787 32.2263 48.2125 32.2534L48.209 32.2553ZM10.6557 45.3687C9.04571 47.1903 6.78996 47.879 5.81871 47.299C4.77746 46.6719 5.18871 43.9912 7.17321 42.05C8.38071 40.8719 9.93821 39.7844 10.9707 39.1138C11.207 38.9688 11.5482 38.7513 11.9682 38.4884C12.0023 38.4658 12.0374 38.4446 12.0732 38.425C12.152 38.3706 12.2395 38.3253 12.327 38.2709C13.0515 41.0259 12.3532 43.4547 10.6557 45.3669V45.3687ZM22.4122 37.0856C21.8522 38.5084 20.6727 42.1334 19.9535 41.9431C19.341 41.7799 18.9647 39.0159 19.831 36.2971C20.2685 34.9287 21.196 33.2974 21.7472 32.6631C22.631 31.639 23.6022 31.3128 23.8297 31.7206C24.136 32.2553 22.7622 36.1974 22.4122 37.0856ZM32.1247 41.8887C31.8885 42.0156 31.6697 42.0971 31.5647 42.0337C31.486 41.9884 31.661 41.8162 31.661 41.8162C31.661 41.8162 32.8772 40.4659 33.3585 39.8496C33.6385 39.4871 33.9622 39.0612 34.3122 38.5899C34.3122 38.6353 34.321 38.6806 34.321 38.7349C34.3105 40.3571 32.8055 41.4537 32.123 41.8887H32.1247ZM39.6147 40.1215C39.4397 39.9946 39.466 39.5687 40.0522 38.2456C40.2797 37.729 40.8047 36.859 41.7147 36.0253C41.818 36.3406 41.874 36.6705 41.881 37.004C41.8722 39.0431 40.4635 39.8043 39.6147 40.1215V40.1215Z" fill="url(#paint0_linear)"/>
</g>
<defs>
<linearGradient id="paint0_linear" x1="24.2861" y1="50.7539" x2="33.0111" y2="9.01893" gradientUnits="userSpaceOnUse">
<stop stop-color="#3C096C"/>
<stop offset="1" stop-color="#A203FF"/>
</linearGradient>
<clipPath id="clip0">
<rect width="56" height="58" fill="white"/>
</clipPath>
</defs>
</svg>
