<svg width="56" height="58" viewBox="0 0 56 58" fill="none" xmlns="http://www.w3.org/2000/svg">
<path d="M1.75 1.8125V56.1875H54.25V1.8125H1.75ZM30.3205 44.2214C30.3205 49.5139 27.3245 51.9209 22.953 51.9209C19.0085 51.9209 16.7177 49.8039 15.554 47.2519L19.572 44.7325C20.3473 46.139 21.0525 47.3425 22.743 47.3425C24.3635 47.3425 25.3855 46.7027 25.3855 44.1344V26.7706H30.3205V44.2214V44.2214ZM41.986 51.9209C37.4045 51.9209 34.4435 49.6589 32.9998 46.7009L37.016 44.2957C38.073 46.0683 39.4485 47.3951 41.881 47.3951C43.9232 47.3951 45.2112 46.3366 45.2112 44.8648C45.2112 43.1139 43.8708 42.4904 41.6168 41.4845L40.3917 40.9226C36.8322 39.3548 34.4715 37.3828 34.4715 33.2195C34.4715 29.3897 37.2785 26.4679 41.6955 26.4679C44.8315 26.4679 47.0855 27.6008 48.7095 30.5533L44.877 33.0999C44.037 31.5411 43.1165 30.9068 41.706 30.9068C40.264 30.9068 39.34 31.8529 39.34 33.0999C39.34 34.6441 40.25 35.2531 42.3675 36.1993L43.5978 36.7611C47.7925 38.6099 50.155 40.513 50.155 44.7905C50.1672 49.4015 46.6795 51.9136 41.9913 51.9136L41.986 51.9209Z" fill="url(#paint0_linear)"/>
<defs>
<linearGradient id="paint0_linear" x1="24.5166" y1="56.1875" x2="38.5987" y2="5.66849" gradientUnits="userSpaceOnUse">
<stop stop-color="#3C096C"/>
<stop offset="1" stop-color="#A203FF"/>
</linearGradient>
</defs>
</svg>
