<svg width="80" height="20" viewBox="0 0 80 20" fill="none" xmlns="http://www.w3.org/2000/svg">
<g clip-path="url(#clip0)">
<path d="M31.5714 11.7142L35.9858 17.1428H32.5L28.5714 12.1572V17.1428H25.7142V2.85719H28.5714V11.2572L32.2 7.14281H35.8428L31.5714 11.7142V11.7142ZM20.1428 6.85719C19.5172 6.86656 18.9032 7.0274 18.3534 7.32594C17.8036 7.62449 17.3343 8.05184 16.9858 8.57141V7.14281H14.2858V17.1428H17.1428V12.4714C17.1053 12.1323 17.138 11.7892 17.2388 11.4633C17.3396 11.1374 17.5065 10.8357 17.7289 10.5771C17.9514 10.3185 18.2247 10.1084 18.5318 9.95994C18.8389 9.81149 19.1734 9.72785 19.5142 9.71422C21.1714 9.71422 21.4286 11.3428 21.4286 12.4714V17.1428H24.2858V11.8428C24.2858 8.7 23.2428 6.85719 20.2 6.85719H20.1428V6.85719ZM45.7142 12.3714C45.7252 12.5808 45.7252 12.7906 45.7142 13H38.2142V13.1C38.336 13.6957 38.666 14.2286 39.1451 14.6029C39.6243 14.9773 40.2211 15.1687 40.8286 15.1428C41.3105 15.1638 41.7917 15.0873 42.2434 14.9179C42.695 14.7486 43.1079 14.4898 43.4572 14.1572L45.3572 15.5858C44.755 16.2003 44.0307 16.6818 43.231 16.9992C42.4313 17.3166 41.5739 17.4629 40.7142 17.4286C40.0023 17.4736 39.2889 17.3653 38.6224 17.111C37.9559 16.8566 37.3517 16.4623 36.8507 15.9544C36.3496 15.4466 35.9634 14.8372 35.7181 14.1673C35.4727 13.4974 35.374 12.7827 35.4286 12.0714C35.414 11.3692 35.5441 10.6716 35.8109 10.0219C36.0778 9.37223 36.4756 8.78448 36.9795 8.29529C37.4834 7.80609 38.0827 7.42594 38.74 7.17852C39.3973 6.9311 40.0986 6.82172 40.8 6.85719C43.4858 6.85719 45.7142 8.75719 45.7142 12.3714ZM43.0572 11.1428C43.0467 10.8598 42.9787 10.582 42.8573 10.3262C42.7359 10.0703 42.5637 9.84189 42.3512 9.65476C42.1387 9.46764 41.8903 9.32574 41.6212 9.23773C41.352 9.14971 41.0678 9.11742 40.7858 9.14281C39.5295 9.00703 38.3919 9.89188 38.2142 11.1428H43.0572ZM2.85719 2.85719H0V17.1428H8.57141V14.2859H2.85719V2.85719ZM54.2858 2.85719H57.1428V17.1428H54.4428V16.1428C54.1 16.5652 53.663 16.9015 53.1669 17.1248C52.6708 17.348 52.1293 17.4521 51.5858 17.4286C50.9217 17.4115 50.2682 17.2589 49.6654 16.98C49.0625 16.701 48.523 16.3018 48.0802 15.8067C47.6373 15.3117 47.3003 14.7312 47.09 14.1012C46.8797 13.4711 46.8005 12.8046 46.8572 12.1428C46.7897 11.48 46.861 10.8105 47.0664 10.1768C47.2718 9.54305 47.6069 8.95901 48.0503 8.46184C48.4937 7.96467 49.0358 7.56525 49.642 7.28898C50.2482 7.01272 50.9053 6.86567 51.5714 6.85719C52.0676 6.83545 52.5631 6.91267 53.0291 7.08436C53.4951 7.25604 53.9223 7.51875 54.2858 7.85719V2.85719V2.85719ZM54.5 12.1428C54.5449 11.8129 54.5186 11.4773 54.4228 11.1584C54.327 10.8396 54.1639 10.545 53.9446 10.2945C53.7252 10.0441 53.4548 9.84354 53.1514 9.70648C52.848 9.56942 52.5187 9.49901 52.1858 9.5C50.8191 9.59922 49.7834 10.7745 49.8572 12.1428C49.7834 13.5111 50.8191 14.6866 52.1858 14.7858C52.5187 14.7868 52.848 14.7164 53.1514 14.5793C53.4548 14.4422 53.7253 14.2417 53.9446 13.9912C54.164 13.7407 54.327 13.4461 54.4228 13.1273C54.5186 12.8084 54.5449 12.4727 54.5 12.1428V12.1428ZM11.4286 2.57141C10.9691 2.57792 10.5293 2.75852 10.1978 3.07675C9.86637 3.39499 9.66801 3.82713 9.64281 4.28594C9.64281 5.27203 10.4423 6.07156 11.4286 6.07156C12.4148 6.07156 13.2141 5.27188 13.2141 4.28594C13.1888 3.82719 12.9905 3.3951 12.6591 3.07691C12.3276 2.75871 11.8878 2.57811 11.4284 2.57156L11.4286 2.57141ZM10 17.1428H12.8572V7.14281H10V17.1428ZM80 1.42859V18.5714C80 18.9503 79.8495 19.3137 79.5816 19.5816C79.3137 19.8495 78.9503 20 78.5714 20H61.4286C61.0497 20 60.6863 19.8495 60.4184 19.5816C60.1505 19.3137 60 18.9503 60 18.5714V1.42859C60 1.04971 60.1505 0.686339 60.4184 0.418425C60.6863 0.150512 61.0497 0 61.4286 0L78.5714 0C78.9503 0 79.3137 0.150512 79.5816 0.418425C79.8495 0.686339 80 1.04971 80 1.42859V1.42859ZM65.7142 7.14281H62.8572V17.1428H65.7142V7.14281ZM66.0714 4.28578C66.0714 3.29953 65.2719 2.5 64.2858 2.5C63.2995 2.5 62.5 3.29953 62.5 4.28578C62.5 5.27188 63.2995 6.07141 64.2858 6.07141C65.2719 6.07141 66.0714 5.27188 66.0714 4.28578V4.28578ZM77.1428 11.8428C77.1428 8.7 76.1 6.85719 73.0572 6.85719C72.4219 6.85724 71.7963 7.01364 71.2358 7.3126C70.6752 7.61155 70.1968 8.04386 69.8428 8.57141V7.14281H67.1428V17.1428H70V12.4714C69.9625 12.1323 69.9952 11.7892 70.096 11.4633C70.1968 11.1374 70.3636 10.8357 70.5861 10.5771C70.8085 10.3185 71.0818 10.1084 71.389 9.95994C71.6961 9.81149 72.0305 9.72785 72.3714 9.71422C74.0286 9.71422 74.2858 11.3428 74.2858 12.4714V17.1428H77.1428V11.8428Z" fill="#F2F2F2"/>
</g>
<defs>
<clipPath id="clip0">
<rect width="80" height="20" fill="white"/>
</clipPath>
</defs>
</svg>
