<svg width="57" height="58" viewBox="0 0 57 58" fill="none" xmlns="http://www.w3.org/2000/svg">
<path d="M28.4958 58C27.7217 58 26.9983 57.7851 26.3228 57.4133L19.4575 53.2074C18.4301 52.6178 18.9452 52.4029 19.2549 52.2954C20.651 51.8161 20.91 51.7116 22.3539 50.8634C22.5116 50.756 22.717 50.8054 22.8747 50.9128L28.1383 54.166C28.3466 54.2705 28.6056 54.2705 28.7604 54.166L49.3617 41.8593C49.57 41.7547 49.6713 41.5397 49.6713 41.2725V16.7056C49.6713 16.4413 49.57 16.2263 49.3617 16.1218L28.7604 3.86735C28.5549 3.75988 28.2959 3.75988 28.1383 3.86735L7.53133 16.1189C7.32585 16.2234 7.22171 16.4936 7.22171 16.7027V41.2667C7.22171 41.4788 7.32585 41.7489 7.53133 41.8534L13.1609 45.214C16.2065 46.8058 18.1205 44.9381 18.1205 43.0792V18.8376C18.1205 18.5181 18.3767 18.1956 18.7398 18.1956H21.3744C21.6784 18.1956 21.9936 18.4629 21.9936 18.8376V43.0821C21.9936 47.2908 19.7756 49.7452 15.9025 49.7452C14.7146 49.7452 13.7858 49.7452 11.1511 48.4091L5.73269 45.2169C5.07251 44.8209 4.52462 44.253 4.14378 43.57C3.76295 42.887 3.56251 42.1128 3.5625 41.3248V16.7579C3.5625 15.1604 4.38723 13.6674 5.73269 12.8686L26.3256 0.561943C26.9941 0.193018 27.7405 0 28.4986 0C29.2567 0 30.0031 0.193018 30.6716 0.561943L51.2673 12.8686C52.6156 13.6645 53.4375 15.1604 53.4375 16.7579V41.3248C53.4375 42.9194 52.6128 44.4124 51.2673 45.2169L30.6716 57.5207C29.9932 57.8402 29.2192 58 28.4958 58V58ZM34.8459 41.107C25.8105 41.107 23.9527 36.843 23.9527 33.2239C23.9527 32.9044 24.2117 32.582 24.572 32.582H27.2573C27.5669 32.582 27.823 32.7941 27.823 33.1165C28.2368 35.9368 29.4218 37.3252 34.8994 37.3252C39.2341 37.3252 41.0975 36.3086 41.0975 33.9123C41.0975 32.5268 40.5768 31.516 33.8157 30.8248C28.189 30.2438 24.6789 28.9571 24.6789 24.3243C24.6789 20.011 28.189 17.4521 34.0775 17.4521C40.6838 17.4521 43.9376 19.8019 44.3486 24.911C44.3437 25.0835 44.2888 25.2504 44.191 25.3903C44.0868 25.4949 43.9348 25.6023 43.78 25.6023H41.0975C40.9649 25.5994 40.8371 25.551 40.7341 25.4647C40.6311 25.3785 40.5589 25.2593 40.5289 25.126C39.9069 22.1865 38.3081 21.2338 34.0775 21.2338C29.3233 21.2338 28.7547 22.9388 28.7547 24.2168C28.7547 25.7592 29.4218 26.2384 35.8311 27.0924C42.1812 27.9434 45.1761 29.1691 45.1761 33.7555C45.1198 38.4464 41.4072 41.107 34.8459 41.107V41.107Z" fill="url(#paint0_linear)"/>
<defs>
<linearGradient id="paint0_linear" x1="25.1908" y1="58" x2="41.7452" y2="5.10722" gradientUnits="userSpaceOnUse">
<stop stop-color="#3C096C"/>
<stop offset="1" stop-color="#A203FF"/>
</linearGradient>
</defs>
</svg>
