<svg width="92" height="22" viewBox="0 0 92 22" fill="none" xmlns="http://www.w3.org/2000/svg">
<g clip-path="url(#clip0)">
<path fill-rule="evenodd" clip-rule="evenodd" d="M53.4072 16.4104H53.3796C53.392 16.4104 53.4003 16.4241 53.4127 16.4255H53.421L53.4072 16.4118V16.4104ZM53.4127 16.4255C53.2845 16.4269 52.9619 16.4943 52.6214 16.4943C51.5462 16.4943 51.174 15.9993 51.174 15.353V11.0479H53.3658C53.4899 11.0479 53.5864 10.9379 53.5864 10.7866V8.44914C53.5864 8.32539 53.4761 8.21539 53.3658 8.21539H51.174V5.31414C51.174 5.20414 51.105 5.13539 50.981 5.13539H48.0033C47.8792 5.13539 47.8103 5.20414 47.8103 5.31414V8.29789C47.8103 8.29789 46.3077 8.66914 46.2112 8.68289C46.1009 8.71039 46.032 8.80664 46.032 8.91664V10.7866C46.032 10.9379 46.1423 11.0479 46.2664 11.0479H47.7965V15.5579C47.7965 18.9129 50.1401 19.2566 51.7392 19.2566C52.4698 19.2566 53.3521 19.0229 53.4899 18.9541C53.5726 18.9266 53.614 18.8304 53.614 18.7341V16.6716C53.6159 16.6131 53.5966 16.5559 53.5596 16.5105C53.5226 16.465 53.4705 16.4344 53.4127 16.4241V16.4255ZM86.0786 13.3991C86.0786 10.9104 85.0722 10.5804 84.0108 10.6904C83.1836 10.7454 82.5219 11.1579 82.5219 11.1579V15.9979C82.5219 15.9979 83.1974 16.4654 84.2038 16.4929C85.6237 16.5341 86.0786 16.0254 86.0786 13.3991ZM89.4284 13.1791C89.4284 17.8954 87.8983 19.2429 85.2239 19.2429C82.9631 19.2429 81.75 18.1016 81.75 18.1016C81.75 18.1016 81.6948 18.7341 81.6259 18.8166C81.5845 18.8991 81.5156 18.9266 81.4329 18.9266H79.3927C79.2548 18.9266 79.1307 18.8166 79.1307 18.6929L79.1583 3.41664C79.1583 3.29289 79.2686 3.18289 79.3927 3.18289H82.3289C82.453 3.18289 82.5633 3.29289 82.5633 3.41664V8.60039C82.5633 8.60039 83.6937 7.87164 85.348 7.87164L85.3342 7.84414C86.9884 7.84414 89.4284 8.46289 89.4284 13.1791V13.1791ZM77.4076 8.21539H74.5126C74.361 8.21539 74.2783 8.32539 74.2783 8.47664V15.9566C74.2783 15.9566 73.5201 16.4929 72.4862 16.4929C71.4523 16.4929 71.149 16.0254 71.149 14.9941V8.46289C71.149 8.33914 71.0387 8.22914 70.9146 8.22914H67.9646C67.8405 8.22914 67.7302 8.33914 67.7302 8.46289V15.4891C67.7302 18.5141 69.4258 19.2704 71.7556 19.2704C73.6717 19.2704 75.2295 18.2116 75.2295 18.2116C75.2295 18.2116 75.2984 18.7479 75.3398 18.8304C75.3673 18.8991 75.4638 18.9541 75.5603 18.9541H77.4076C77.5592 18.9541 77.6419 18.8441 77.6419 18.7204L77.6695 8.44914C77.6695 8.32539 77.5592 8.21539 77.4076 8.21539V8.21539ZM44.7362 8.20164H41.7999C41.6758 8.20164 41.5655 8.32539 41.5655 8.47664V18.5691C41.5655 18.8441 41.7447 18.9404 41.9791 18.9404H44.6259C44.9016 18.9404 44.9705 18.8166 44.9705 18.5691V8.43539C44.9705 8.31164 44.8602 8.20164 44.7362 8.20164V8.20164ZM43.2887 3.55414C42.2272 3.55414 41.3863 4.39289 41.3863 5.45164C41.3863 6.51039 42.2272 7.34914 43.2887 7.34914C44.3226 7.34914 45.1635 6.51039 45.1635 5.45164C45.1635 4.39289 44.3226 3.55414 43.2887 3.55414ZM66.0208 3.21039H63.1121C62.988 3.21039 62.8778 3.32039 62.8778 3.44414V9.06789H58.3148V3.44414C58.3148 3.32039 58.2045 3.21039 58.0804 3.21039H55.1442C55.0201 3.21039 54.9098 3.32039 54.9098 3.44414V18.7204C54.9098 18.8441 55.0339 18.9541 55.1442 18.9541H58.0804C58.2045 18.9541 58.3148 18.8441 58.3148 18.7204V12.1891H62.8778L62.8502 18.7204C62.8502 18.8441 62.9605 18.9541 63.0845 18.9541H66.0208C66.1449 18.9541 66.2552 18.8441 66.2552 18.7204V3.44414C66.2552 3.32039 66.1449 3.21039 66.0208 3.21039V3.21039ZM40.0078 9.97539V17.8679C40.0078 17.9229 39.994 18.0191 39.9251 18.0466C39.9251 18.0466 38.2019 19.2704 35.3621 19.2704C31.9295 19.2704 27.8629 18.1979 27.8629 11.1304C27.8629 4.06289 31.4195 2.60539 34.8934 2.61914C37.8986 2.61914 39.1117 3.29289 39.3047 3.41664C39.3599 3.48539 39.3874 3.54039 39.3874 3.60914L38.8085 6.05664C38.8085 6.18039 38.6844 6.33164 38.5327 6.29039C38.0365 6.13914 37.2921 5.83664 35.5413 5.83664C33.5149 5.83664 31.3368 6.41414 31.3368 10.9654C31.3368 15.5166 33.4046 16.0529 34.8934 16.0529C36.1617 16.0529 36.6166 15.9016 36.6166 15.9016V12.7391H34.5901C34.4385 12.7391 34.3282 12.6291 34.3282 12.5054V9.97539C34.3282 9.85164 34.4385 9.74164 34.5901 9.74164H39.7459C39.8975 9.74164 40.0078 9.85164 40.0078 9.97539Z" fill="#F2F2F2"/>
<path d="M9.45423 1.57143C4.12183 1.56928 -0.197144 5.87045 -0.197144 11.1792C-0.197144 15.3773 2.50464 18.9458 6.26729 20.2564C6.77401 20.3831 6.69639 20.0244 6.69639 19.7794V18.1144C3.77036 18.456 3.65176 16.5267 3.45554 16.2044C3.05879 15.5298 2.12083 15.358 2.40114 15.0357C3.06742 14.6941 3.74664 15.1216 4.53367 16.2796C5.10292 17.1197 6.21339 16.9779 6.77617 16.8382C6.89908 16.3333 7.16214 15.8822 7.52439 15.532C4.4927 14.9906 3.22914 13.1472 3.22914 10.9558C3.22914 9.89233 3.58061 8.91479 4.27061 8.12631C3.83073 6.82651 4.31158 5.71362 4.37626 5.54819C5.62904 5.43647 6.93142 6.44194 7.03276 6.52143C7.74433 6.33022 8.55723 6.22924 9.46717 6.22924C10.3814 6.22924 11.1965 6.33451 11.9145 6.52787C12.1582 6.34311 13.3657 5.47944 14.53 5.58471C14.5926 5.75014 15.0626 6.83725 14.6486 8.11987C15.3473 8.91049 15.703 9.89663 15.703 10.9623C15.703 13.158 14.4309 15.0035 11.3905 15.5363C11.651 15.7914 11.8577 16.0958 11.9988 16.4314C12.1398 16.7671 12.2123 17.1274 12.2121 17.4914V19.9083C12.2293 20.1017 12.2121 20.2929 12.5355 20.2929C16.3542 19.0103 19.1035 15.416 19.1035 11.1814C19.1035 5.87045 14.7823 1.57143 9.45423 1.57143V1.57143Z" fill="#F2F2F2"/>
</g>
<defs>
<clipPath id="clip0">
<rect width="92" height="22" fill="white"/>
</clipPath>
</defs>
</svg>
