<svg width="58" height="58" viewBox="0 0 58 58" fill="none" xmlns="http://www.w3.org/2000/svg">
<g clip-path="url(#clip0)">
<path d="M29.0002 32.3474C31.8566 32.3474 34.172 30.0319 34.172 27.1756C34.172 24.3193 31.8566 22.0038 29.0002 22.0038C26.1439 22.0038 23.8284 24.3193 23.8284 27.1756C23.8284 30.0319 26.1439 32.3474 29.0002 32.3474Z" fill="url(#paint0_linear)"/>
<path d="M14.5192 37.4584L13.3747 37.1658C4.87387 35.0188 -0.00240326 31.3681 -0.00240326 27.164C-0.00240326 22.9571 4.87676 19.3093 13.3747 17.1623L14.5192 16.8726L14.8408 18.0055C15.7 20.9715 16.8008 23.8621 18.1322 26.6483L18.3785 27.164L18.1322 27.6798C16.7994 30.4699 15.6955 33.3615 14.8408 36.3284L14.5192 37.4584V37.4584ZM12.8474 19.7989C6.38919 21.6185 2.42269 24.3942 2.42269 27.164C2.42269 29.9281 6.38629 32.7067 12.8474 34.5234C13.6384 32.0084 14.5945 29.5486 15.7013 27.164C14.5865 24.7755 13.6331 22.315 12.8474 19.7989V19.7989ZM43.4784 37.4584L43.1597 36.3226C42.2982 33.356 41.1965 30.4645 39.8654 27.6769L39.6191 27.164L39.8654 26.6454C41.1982 23.861 42.2963 20.9666 43.1597 17.9997L43.4784 16.8697L44.6229 17.1594C53.1266 19.3064 58 22.9542 58 27.164C58 31.371 53.1237 35.0188 44.6229 37.1658L43.4784 37.4584V37.4584ZM42.2905 27.164C43.4494 29.6732 44.4142 32.1417 45.1502 34.5234C51.6113 32.7067 55.5778 29.9281 55.5778 27.164C55.5778 24.3942 51.6142 21.6214 45.1502 19.7989C44.36 22.3142 43.4047 24.7746 42.2905 27.164V27.164Z" fill="url(#paint1_linear)"/>
<path d="M12.8301 19.7873L12.5113 18.6574C10.1181 10.2318 10.8425 4.19661 14.5018 2.09313C18.0801 0.0215074 23.8371 2.46978 29.8666 8.65566L30.6894 9.50169L29.8666 10.3448C27.7251 12.572 25.7677 14.9692 24.0139 17.5129L23.6865 17.9823L23.1186 18.0286C20.0346 18.2709 16.9755 18.7641 13.9716 19.5034L12.8301 19.7873V19.7873ZM17.4137 3.7678C16.7647 3.7678 16.191 3.90977 15.7071 4.18792C13.3081 5.56997 12.8851 10.3825 14.5366 16.8784C17.1182 16.3076 19.7229 15.8991 22.3479 15.6702C23.8676 13.5147 25.5255 11.46 27.3111 9.51908C23.5358 5.84811 19.9721 3.7678 17.4137 3.7678V3.7678ZM40.5839 52.9767C37.1419 52.9767 32.7205 50.3807 28.131 45.6695L27.3111 44.8264L28.131 43.9862C30.2729 41.7554 32.2311 39.3554 33.9866 36.8094L34.3111 36.3458L34.8732 36.2908C37.9583 36.0528 41.0186 35.5615 44.0231 34.8218L45.1676 34.5321L45.4892 35.6649C47.8708 44.0847 47.1494 50.1286 43.4958 52.2321C42.6087 52.7349 41.6035 52.9919 40.5839 52.9767V52.9767ZM30.6894 44.8061C34.4618 48.4771 38.0285 50.5603 40.5839 50.5603C41.2358 50.5603 41.8095 50.4154 42.2905 50.1402C44.6924 48.7552 45.1183 43.934 43.461 37.4381C40.8824 38.0118 38.2747 38.4232 35.6439 38.6521C34.1307 40.811 32.4755 42.8669 30.6894 44.8061V44.8061Z" fill="url(#paint2_linear)"/>
<path d="M45.1675 19.7873L44.0231 19.5005C41.0187 18.7589 37.9584 18.2656 34.8732 18.0257L34.3111 17.9765L33.9866 17.5071C32.2335 14.962 30.2751 12.5647 28.131 10.339L27.3111 9.49589L28.131 8.65566C34.1575 2.47267 39.9117 0.0243962 43.4958 2.09312C47.1522 4.1995 47.8795 10.2347 45.4892 18.6574L45.1675 19.7873ZM35.6439 15.6702C38.408 15.9165 41.0272 16.3308 43.461 16.8784C45.1154 10.3825 44.6924 5.56996 42.2905 4.18502C39.903 2.80297 35.4092 4.91805 30.6894 9.51907C32.4742 11.4603 34.1315 13.5116 35.6439 15.6702ZM17.4137 52.9767C16.3942 52.9912 15.3892 52.7342 14.5018 52.2321C10.8424 50.1286 10.1181 44.0876 12.5084 35.6649L12.8213 34.532L13.9658 34.8218C16.7589 35.5258 19.8359 36.0213 23.1157 36.2907L23.6778 36.3458L24.0052 36.8094C25.7552 39.3533 27.7138 41.7552 29.8579 43.9862L30.6807 44.8264L29.8579 45.6695C25.2713 50.3835 20.8499 52.9767 17.4137 52.9767V52.9767ZM14.5366 37.441C12.8851 43.9369 13.3081 48.7581 15.7071 50.1431C18.0974 51.5048 22.5768 49.4042 27.3111 44.8061C25.5262 42.8646 23.8683 40.8099 22.3479 38.655C19.7202 38.4226 17.1108 38.0171 14.5366 37.441V37.441Z" fill="url(#paint3_linear)"/>
<path d="M29.0002 38.9621C27.0098 38.9621 24.9671 38.8781 22.9158 38.7072L22.3479 38.6579L22.0205 38.1885C20.8637 36.5252 19.7753 34.8153 18.758 33.0631C17.7483 31.3062 16.8097 29.5094 15.9447 27.6769L15.7013 27.164L15.9447 26.6454C16.811 24.8143 17.7469 23.0179 18.758 21.2621C19.7634 19.5353 20.8615 17.8084 22.0205 16.1338L22.3479 15.6702L22.9158 15.618C26.9631 15.279 31.0316 15.279 35.0789 15.618L35.641 15.6731L35.9684 16.1367C38.2857 19.465 40.3209 22.9811 42.0529 26.6483L42.2934 27.1669L42.0529 27.6798C40.3257 31.3495 38.2903 34.866 35.9684 38.1914L35.641 38.6608L35.0789 38.7101C33.0334 38.8752 30.9878 38.9621 29.0002 38.9621V38.9621ZM23.6865 36.3429C27.2647 36.6124 30.7358 36.6124 34.3111 36.3429C36.3071 33.4201 38.0814 30.3519 39.6191 27.164C38.0868 23.9734 36.3123 20.9047 34.3111 17.9852C30.7748 17.7128 27.2228 17.7128 23.6865 17.9852C21.6836 20.9037 19.909 23.9724 18.3785 27.164C19.9195 30.3501 21.6937 33.4181 23.6865 36.3429V36.3429Z" fill="url(#paint4_linear)"/>
</g>
<defs>
<linearGradient id="paint0_linear" x1="28.3139" y1="32.3474" x2="30.9131" y2="22.6902" gradientUnits="userSpaceOnUse">
<stop stop-color="#3C096C"/>
<stop offset="1" stop-color="#A203FF"/>
</linearGradient>
<linearGradient id="paint1_linear" x1="25.1503" y1="37.4584" x2="27.1019" y2="17.0299" gradientUnits="userSpaceOnUse">
<stop stop-color="#3C096C"/>
<stop offset="1" stop-color="#A203FF"/>
</linearGradient>
<linearGradient id="paint2_linear" x1="26.6246" y1="52.9773" x2="44.0678" y2="8.08281" gradientUnits="userSpaceOnUse">
<stop stop-color="#3C096C"/>
<stop offset="1" stop-color="#A203FF"/>
</linearGradient>
<linearGradient id="paint3_linear" x1="26.6262" y1="52.9773" x2="44.0666" y2="8.08206" gradientUnits="userSpaceOnUse">
<stop stop-color="#3C096C"/>
<stop offset="1" stop-color="#A203FF"/>
</linearGradient>
<linearGradient id="paint4_linear" x1="27.2329" y1="38.9621" x2="32.5717" y2="16.6088" gradientUnits="userSpaceOnUse">
<stop stop-color="#3C096C"/>
<stop offset="1" stop-color="#A203FF"/>
</linearGradient>
<clipPath id="clip0">
<rect width="58" height="58" fill="white"/>
</clipPath>
</defs>
</svg>
