<svg width="57" height="58" viewBox="0 0 57 58" fill="none" xmlns="http://www.w3.org/2000/svg">
<path d="M39.2814 39.5068C40.27 39.4092 41.1828 38.928 41.8282 38.1642C42.4737 37.4004 42.8017 36.4134 42.7434 35.4102C42.6978 34.3799 42.2634 33.4066 41.5296 32.6906C40.7959 31.9747 39.8187 31.5707 38.7994 31.5619H38.6591C37.6134 31.5997 36.6252 32.0557 35.9115 32.8298C35.1978 33.604 34.8169 34.633 34.8524 35.691C34.9225 36.8112 35.3754 37.7215 35.9947 38.3836C33.5787 43.1393 29.9472 46.6418 24.4432 49.5797C20.7445 51.5394 16.8356 52.2753 13.0347 51.7492C9.85324 51.297 7.36705 49.8576 5.83911 47.5492C3.56035 44.0467 3.35 40.2723 5.25189 36.4949C6.41185 34.2414 8.06931 32.2884 10.0957 30.7875C9.67875 29.6156 9.35538 28.4117 9.12871 27.1875C-1.11404 34.6063 -0.0681434 44.7502 3.04032 49.5443C5.35998 53.0438 10.0957 55.2812 15.2814 55.2812C16.6661 55.2812 18.121 55.1778 19.538 54.8261C28.5274 53.0763 35.3403 47.6201 39.2493 39.5748L39.2814 39.5068V39.5068Z" fill="url(#paint0_linear)"/>
<path d="M51.4248 30.8261C46.0384 24.5499 38.1114 21.1029 29.0713 21.1029H27.8877C27.3003 19.8267 25.9464 19.0312 24.4132 19.0312H24.3075C22.1224 19.0312 20.416 20.896 20.4865 23.0668C20.554 25.1356 22.328 26.8605 24.4514 26.8605H24.6247C25.3763 26.8323 26.1038 26.5897 26.7201 26.1618C27.3363 25.7339 27.8151 25.1389 28.0992 24.4479H29.3885C34.7456 24.4479 39.8178 25.998 44.4436 29.0342C47.9856 31.3419 50.529 34.378 51.9535 37.9998C53.2017 40.9689 53.1342 43.8652 51.8507 46.2836C49.8682 50.0773 46.5288 52.0761 42.1175 52.0761C39.3361 52.0761 36.6224 51.2136 35.2302 50.593C34.399 51.2778 33.004 52.417 31.9936 53.1076C35.054 54.4858 38.1496 55.2813 41.1365 55.2813C47.918 55.2813 52.9521 51.4875 54.8699 47.8308C56.9522 43.6874 56.7819 36.7206 51.4601 30.7591L51.4248 30.8261V30.8261Z" fill="url(#paint1_linear)"/>
<path d="M16.3406 40.6045C16.4069 42.6777 18.145 44.4063 20.2319 44.4063H20.3703C20.8831 44.3944 21.3884 44.2787 21.8564 44.066C22.3244 43.8533 22.7456 43.5479 23.0954 43.1678C23.4451 42.7877 23.7162 42.3406 23.8927 41.8527C24.0693 41.3649 24.1477 40.8462 24.1233 40.3271C24.1233 38.254 22.3477 36.5283 20.2665 36.5283H20.1282C19.9898 36.5283 19.788 36.5283 19.6151 36.5926C16.7845 31.7543 15.5882 26.5656 16.035 20.974C16.306 16.7547 17.6694 13.0903 20.1282 10.0477C22.1747 7.45484 26.0315 6.17592 28.6604 6.10584C36.028 5.96569 39.1008 15.2685 39.3371 18.9651L42.75 19.9988C41.9631 8.66368 35.0047 2.71875 28.349 2.71875C22.1056 2.71875 16.3406 7.31468 14.0202 14.0597C10.8436 23.0442 12.9277 31.6842 16.8191 38.5986C16.4789 39.0482 16.2743 39.8424 16.3406 40.6045V40.6045Z" fill="url(#paint2_linear)"/>
<defs>
<linearGradient id="paint0_linear" x1="19.0429" y1="55.2812" x2="23.9634" y2="28.0405" gradientUnits="userSpaceOnUse">
<stop stop-color="#3C096C"/>
<stop offset="1" stop-color="#A203FF"/>
</linearGradient>
<linearGradient id="paint1_linear" x1="35.9331" y1="55.2812" x2="45.1797" y2="21.5172" gradientUnits="userSpaceOnUse">
<stop stop-color="#3C096C"/>
<stop offset="1" stop-color="#A203FF"/>
</linearGradient>
<linearGradient id="paint2_linear" x1="25.6002" y1="44.4062" x2="39.1988" y2="7.70406" gradientUnits="userSpaceOnUse">
<stop stop-color="#3C096C"/>
<stop offset="1" stop-color="#A203FF"/>
</linearGradient>
</defs>
</svg>
